<svg xmlns="http://www.w3.org/2000/svg" version="1.1" xlink="http://www.w3.org/1999/xlink" xmlns:svgjs="http://svgjs.com/svgjs" width="100%" height="100%" preserveAspectRatio="xMidYMid meet" viewBox="0 -9.024692104731002e-9 300 81.73826599121094" overflow="visible"><defs id="SvgjsDefs136784"></defs><g id="SvgjsG136785" transform="scale(0.6093890739200778)" opacity="1"><g id="SvgjsG136786" class="jTwa-dos3" transform="translate(0, -0.2423090189954255) scale(1.346161216641334)" light-content="false" non-strokable="false" fill="#e99002"><path d="M88.548 64.244l.009 2.932-16.016 9.246-6.404 3.697-16.011 9.244-.125-44.125-.126 44.125-16.01-9.244.031-11.039-.005-.004-.021 7.309-6.399-3.694-.011 3.731-16.015-9.246.009-2.973L0 70.859 50.161 99.82 100 70.855z"></path><path d="M27.46 76.422l.011-3.73-.004-.004-.425-7.363L33 69.021v.055l.45.004.192 11.039 16.121 9.244.181-44.125.025.002L17.07 26.2l-5.506-3.183-.113 41.186-.008 2.973 16.017 9.246zm19.227 7.418l-6.408-3.699.021-7.363 6.409 3.699-.022 7.363zm.042-14.721l-6.408-3.701.021-7.357 6.408 3.701-.021 7.357zm.062-22.08l-.021 7.357-6.408-3.699.021-7.358 6.408 3.7zM27.576 35.945l6.403 3.697L33.958 47l-6.403-3.697.021-7.358zm6.362 18.418l-.021 7.359-6.404-3.697.021-7.358 6.404 3.696zM14.764 28.548l6.403 3.697-.021 7.358-6.403-3.697.021-7.358zm-.042 14.722l6.403 3.697-.021 7.358-6.403-3.697.021-7.358zm6.362 18.414l-.021 7.363-6.403-3.697.021-7.363 6.403 3.697zm38.535-18.345l-6.408 3.701.02 7.356 6.409-3.699zM66.043 47l6.403-3.697-.02-7.358-6.404 3.698zm19.215-11.093l-.021-7.358-6.403 3.697.02 7.358zM59.66 58.056l-6.407 3.7.02 7.363 6.408-3.701zm6.403-3.698l.022 7.365 6.403-3.698-.02-7.364zm12.833-.033l6.404-3.697-.021-7.363-6.403 3.697zM53.294 76.477l.021 7.357 6.408-3.699-.021-7.358zm12.811-7.397l.032 11.039 6.404-3.697-.032-11.039zm12.812-7.396l.021 7.357 6.404-3.697-.022-7.358zM49.837 3.238l31.608 18.249 2.644-1.536L49.845.18z"></path><path d="M18.455 21.476L49.837 3.238 49.845.18 15.819 19.954zM49.997 45.24l.008-3.057-38.429-22.231-.009 3.056 5.517 3.192z"></path></g><g id="SvgjsG136787" class="text" transform="translate(326.89632239738086, 105.92150087956054) scale(1)" light-content="false" fill="#ffffff"><path d="M-154.5 -36.52L-133.69 -36.52L-112.08 0L-105.09 0L-127.85 -38.18C-121.81 -39.86 -117.31 -42.63 -114.34 -46.49C-111.38 -50.35 -109.9 -55.09 -109.9 -60.71C-109.9 -68.43 -112.39 -74.21 -117.35 -78.05C-122.32 -81.9 -130.01 -83.82 -140.4 -83.82L-160.35 -83.82L-160.35 0L-154.5 0ZM-154.5 -41.56L-154.5 -78.54L-140.63 -78.54C-131.99 -78.54 -125.76 -77.09 -121.94 -74.19C-118.12 -71.28 -116.21 -66.64 -116.21 -60.25C-116.21 -54.1 -118.16 -49.45 -122.06 -46.29C-125.95 -43.14 -131.44 -41.56 -138.51 -41.56Z M-66.85 1.15C-63.25 1.15 -59.97 0.87 -56.99 0.32C-54 -0.24 -50.76 -1.28 -47.24 -2.81L-47.24 -7.97C-51.37 -6.33 -54.78 -5.26 -57.47 -4.76C-60.17 -4.26 -63.29 -4.01 -66.85 -4.01C-74.15 -4.01 -79.76 -6.27 -83.67 -10.78C-87.59 -15.29 -89.59 -21.82 -89.66 -30.38L-44.77 -30.38L-44.77 -34.97C-44.77 -43.76 -46.9 -50.72 -51.14 -55.84C-55.38 -60.96 -61.17 -63.52 -68.51 -63.52C-76.8 -63.52 -83.4 -60.53 -88.29 -54.55C-93.18 -48.57 -95.63 -40.61 -95.63 -30.67C-95.63 -20.62 -93.09 -12.8 -88.03 -7.22C-82.97 -1.64 -75.91 1.15 -66.85 1.15ZM-68.51 -58.48C-62.97 -58.48 -58.63 -56.44 -55.5 -52.37C-52.36 -48.3 -50.79 -42.65 -50.79 -35.43L-89.32 -35.43C-88.71 -42.88 -86.59 -48.59 -82.96 -52.54C-79.33 -56.5 -74.51 -58.48 -68.51 -58.48Z M14.22 -29.58L25.86 0L32.45 0L-0.57 -84.16L-4.3 -84.16L-38.01 0L-31.53 0L-19.84 -29.58ZM-17.71 -34.86L-5.96 -64.95C-4.74 -67.94 -3.61 -71.26 -2.58 -74.93C-1.24 -70.73 -0.1 -67.44 0.86 -65.07L12.27 -34.86Z M69.54 1.15C77.57 1.15 83.9 -1.67 88.55 -7.31C93.19 -12.95 95.51 -20.89 95.51 -31.13C95.51 -41.68 93.3 -49.71 88.89 -55.24C84.48 -60.76 78.06 -63.52 69.66 -63.52C60.25 -63.52 53.41 -60.16 49.13 -53.43L48.79 -53.43L47.7 -62.32L42.88 -62.32L42.88 28.21L48.56 28.21L48.56 4.47C48.56 1.11 48.48 -1.99 48.33 -4.82L48.16 -9.63L48.56 -9.63C52.95 -2.45 59.95 1.15 69.54 1.15ZM69.43 -3.9C62.05 -3.9 56.73 -5.98 53.46 -10.15C50.19 -14.31 48.56 -21.27 48.56 -31.02L48.56 -32.85C48.56 -41.87 50.26 -48.38 53.66 -52.37C57.06 -56.37 62.39 -58.36 69.66 -58.36C82.88 -58.36 89.49 -49.21 89.49 -30.9C89.49 -22.38 87.74 -15.75 84.25 -11.01C80.75 -6.27 75.81 -3.9 69.43 -3.9Z M139.43 1.15C147.45 1.15 153.79 -1.67 158.43 -7.31C163.08 -12.95 165.4 -20.89 165.4 -31.13C165.4 -41.68 163.19 -49.71 158.78 -55.24C154.36 -60.76 147.95 -63.52 139.54 -63.52C130.14 -63.52 123.3 -60.16 119.02 -53.43L118.67 -53.43L117.58 -62.32L112.77 -62.32L112.77 28.21L118.44 28.21L118.44 4.47C118.44 1.11 118.37 -1.99 118.21 -4.82L118.04 -9.63L118.44 -9.63C122.84 -2.45 129.83 1.15 139.43 1.15ZM139.31 -3.9C131.94 -3.9 126.61 -5.98 123.35 -10.15C120.08 -14.31 118.44 -21.27 118.44 -31.02L118.44 -32.85C118.44 -41.87 120.14 -48.38 123.55 -52.37C126.95 -56.37 132.28 -58.36 139.54 -58.36C152.77 -58.36 159.38 -49.21 159.38 -30.9C159.38 -22.38 157.63 -15.75 154.13 -11.01C150.63 -6.27 145.69 -3.9 139.31 -3.9Z"></path></g></g></svg>
